<svg width="24" height="23" viewBox="0 0 24 23" fill="none" xmlns="http://www.w3.org/2000/svg">
<path d="M22.1543 0.984314C21.8292 0.998655 21.5264 1.09334 21.2598 1.20111C21.01 1.30157 20.0558 1.71085 18.5527 2.35541C17.0484 3.00053 15.0565 3.85572 12.9316 4.76947C8.68196 6.59697 3.90421 8.65411 1.45703 9.70697C1.36501 9.74655 1.04392 9.84912 0.703125 10.1152C0.362329 10.3812 0 10.9325 0 11.5468C0 12.0422 0.236068 12.5343 0.533203 12.8281C0.830339 13.1219 1.14475 13.267 1.41406 13.3769C2.39123 13.7756 5.42185 15.0158 5.99414 15.2499C6.19555 15.8669 7.29249 19.2225 7.54688 20.0449C7.71457 20.5876 7.8742 20.9275 8.08203 21.1972C8.18595 21.3321 8.30674 21.4503 8.45312 21.5429C8.51163 21.5799 8.57579 21.6084 8.64062 21.6347L8.64453 21.6367C8.65947 21.6427 8.67235 21.6528 8.6875 21.6581C8.71608 21.6681 8.7352 21.6693 8.77344 21.6777C8.92576 21.7269 9.07955 21.7578 9.2168 21.7578C9.80196 21.7578 10.1602 21.4355 10.1602 21.4355L10.1816 21.4199L13.1914 18.8163L16.8418 22.2695C16.8932 22.3421 17.3725 22.9999 18.4297 22.9999C19.0574 22.9999 19.5553 22.685 19.875 22.3495C20.1947 22.0141 20.3938 21.6617 20.4785 21.2187V21.2167C20.5577 20.7981 23.9219 3.52728 23.9219 3.52728L23.916 3.55072C24.0145 3.10121 24.0403 2.68258 23.9316 2.26947C23.823 1.85636 23.5366 1.46083 23.1816 1.24799C22.8267 1.03519 22.4794 0.969972 22.1543 0.984314ZM21.9668 3.07416C21.962 3.10334 21.9704 3.08867 21.9629 3.12299L21.9609 3.1347L21.959 3.14642C21.959 3.14642 18.6365 20.1963 18.5137 20.8456C18.5227 20.7966 18.4816 20.8941 18.4395 20.9531C18.3799 20.912 18.2578 20.8593 18.2578 20.8593L18.2383 20.8378L13.252 16.121L9.72656 19.1679L10.7754 14.9687C10.7754 14.9687 17.3316 8.18205 17.7266 7.78705C18.0446 7.47105 18.1113 7.36089 18.1113 7.25189C18.1113 7.10589 18.0352 6.99994 17.8652 6.99994C17.7122 6.99994 17.5065 7.14869 17.3965 7.21869C15.9634 8.13223 9.67182 11.7991 6.85156 13.4394C6.40338 13.256 3.28966 11.9814 2.23438 11.5507C2.24236 11.5472 2.23973 11.5485 2.24805 11.5449C4.69587 10.4917 9.47163 8.43461 13.7207 6.60736C15.8452 5.69374 17.8387 4.8379 19.3418 4.1933C20.8218 3.55862 21.8501 3.12183 21.9668 3.07416Z" fill="#2A6F97"/>
</svg>
