<svg width="30" height="25" viewBox="0 0 30 25" fill="none" xmlns="http://www.w3.org/2000/svg">
<path d="M15 0C10.17 0 3.90099 1.19174 3.90099 1.19174L3.88522 1.2095C1.68538 1.55596 0 3.41745 0 5.68131V12.4989V12.5011V19.3165V19.3187C0.00214668 20.3999 0.395619 21.4449 1.10977 22.2661C1.82391 23.0874 2.81196 23.631 3.89648 23.7994L3.90099 23.806C3.90099 23.806 10.17 25 15 25C19.83 25 26.099 23.806 26.099 23.806L26.1013 23.8038C27.187 23.6358 28.1761 23.0917 28.8908 22.2695C29.6055 21.4473 29.9988 20.401 30 19.3187V19.3165V12.5011V12.4989V5.68131C29.9984 4.59974 29.6052 3.55418 28.891 2.73249C28.1768 1.91081 27.1884 1.36687 26.1035 1.1984L26.099 1.19174C26.099 1.19174 19.83 0 15 0ZM11.5385 7.27031L20.7692 12.4989L11.5385 17.7275V7.27031Z" fill="#2A6F97"/>
</svg>
