<svg width="50" height="51" viewBox="0 0 50 51" fill="none" xmlns="http://www.w3.org/2000/svg">
<path d="M49.5137 20.6038H47.5V20.5H25V30.5H39.1288C37.0675 36.3213 31.5287 40.5 25 40.5C16.7162 40.5 10 33.7837 10 25.5C10 17.2162 16.7162 10.5 25 10.5C28.8237 10.5 32.3025 11.9425 34.9513 14.2987L42.0225 7.2275C37.5575 3.06625 31.585 0.5 25 0.5C11.1938 0.5 0 11.6938 0 25.5C0 39.3063 11.1938 50.5 25 50.5C38.8063 50.5 50 39.3063 50 25.5C50 23.8237 49.8275 22.1875 49.5137 20.6038Z" fill="#FFC107"/>
<path d="M2.88257 13.8638L11.0963 19.8875C13.3188 14.385 18.7013 10.5 25.0001 10.5C28.8238 10.5 32.3026 11.9425 34.9513 14.2988L42.0226 7.2275C37.5576 3.06625 31.5851 0.5 25.0001 0.5C15.3976 0.5 7.07007 5.92125 2.88257 13.8638Z" fill="#FF3D00"/>
<path d="M25 50.5C31.4575 50.5 37.325 48.0288 41.7612 44.01L34.0237 37.4625C31.5137 39.3638 28.3937 40.5 25 40.5C18.4975 40.5 12.9762 36.3538 10.8962 30.5675L2.74371 36.8488C6.88121 44.945 15.2837 50.5 25 50.5Z" fill="#4CAF50"/>
<path d="M49.5138 20.6038H47.5V20.5H25V30.5H39.1288C38.1388 33.2963 36.34 35.7075 34.02 37.4638C34.0212 37.4625 34.0225 37.4625 34.0238 37.4613L41.7612 44.0088C41.2138 44.5063 50 38 50 25.5C50 23.8238 49.8275 22.1875 49.5138 20.6038Z" fill="#1976D2"/>
</svg>
