<svg width="16" height="12" viewBox="0 0 16 12" fill="none" xmlns="http://www.w3.org/2000/svg">
<path d="M8 0C6.41775 0 4.87103 0.326277 3.55544 0.937571C2.23985 1.54887 1.21447 2.41772 0.608967 3.43427C0.00346614 4.45081 -0.15496 5.56939 0.153721 6.64855C0.462403 7.72771 1.22433 8.71898 2.34315 9.49701C3.46197 10.275 4.88743 10.8049 6.43928 11.0195C7.99113 11.2342 9.59966 11.124 11.0615 10.703C12.5233 10.2819 13.7727 9.56884 14.6518 8.65397C15.5308 7.73911 16 6.66352 16 5.56322C15.9976 4.08827 15.154 2.67421 13.6542 1.63127C12.1544 0.588322 10.121 0.00166445 8 0ZM8 10.4719C6.6039 10.4719 5.23915 10.184 4.07833 9.64467C2.91751 9.10529 2.01277 8.33865 1.4785 7.4417C0.944235 6.54475 0.804447 5.55777 1.07681 4.60557C1.34918 3.65337 2.02147 2.77872 3.00866 2.09223C3.99585 1.40573 5.25362 0.93822 6.62289 0.748816C7.99217 0.559412 9.41146 0.656621 10.7013 1.02815C11.9911 1.39968 13.0936 2.02884 13.8692 2.83608C14.6448 3.64331 15.0588 4.59236 15.0588 5.56322C15.0567 6.86464 14.3123 8.11233 12.989 9.03258C11.6657 9.95282 9.87147 10.4705 8 10.4719ZM5.33357 5.56295C5.33359 5.95215 5.50971 6.33149 5.83697 6.64722C6.16422 6.96296 6.62604 7.19909 7.15699 7.32218C7.68795 7.44526 8.26114 7.44906 8.79537 7.33303C9.32961 7.21701 9.7978 6.98704 10.1337 6.6757C10.2086 6.60631 10.3202 6.56048 10.4438 6.54828C10.5673 6.53608 10.6928 6.55852 10.7926 6.61066C10.8924 6.6628 10.9583 6.74037 10.9758 6.82631C10.9934 6.91224 10.9611 6.9995 10.8861 7.06889C10.4316 7.48999 9.79819 7.80101 9.07546 7.95788C8.35272 8.11475 7.57733 8.10953 6.85909 7.94296C6.14086 7.77639 5.51618 7.4569 5.07353 7.02976C4.63088 6.60261 4.39269 6.08945 4.39269 5.56294C4.39269 5.03643 4.63088 4.52327 5.07353 4.09612C5.51618 3.66897 6.14086 3.34949 6.85909 3.18292C7.57733 3.01635 8.35272 3.01113 9.07546 3.168C9.79819 3.32487 10.4316 3.63589 10.8861 4.05699C10.9611 4.12638 10.9934 4.21364 10.9758 4.29957C10.9583 4.38551 10.8924 4.46308 10.7926 4.51522C10.6928 4.56736 10.5673 4.5898 10.4438 4.5776C10.3202 4.5654 10.2086 4.51957 10.1337 4.45018C9.7978 4.13885 9.32959 3.90889 8.79536 3.79287C8.26113 3.67685 7.68794 3.68065 7.15699 3.80374C6.62604 3.92682 6.16423 4.16296 5.83697 4.47869C5.50972 4.79442 5.3336 5.17375 5.33357 5.56295Z" fill="white"/>
</svg>
