<svg width="21" height="14" viewBox="0 0 21 14" fill="none" xmlns="http://www.w3.org/2000/svg">
<path d="M17.7916 0.0399844H3.20828C2.88167 0.0337614 2.5568 0.0798607 2.25279 0.17557C1.94877 0.271279 1.67176 0.414665 1.43804 0.597291C1.20432 0.779918 1.01862 0.998095 0.891865 1.23899C0.765109 1.47988 0.699859 1.73862 0.699951 1.99998V8.99998C0.699859 9.26135 0.765109 9.52009 0.891865 9.76098C1.01862 10.0019 1.20432 10.2201 1.43804 10.4027C1.67176 10.5853 1.94877 10.7287 2.25279 10.8244C2.5568 10.9201 2.88167 10.9662 3.20828 10.96H4.66662V13.2L6.4312 10.96H17.7916C18.1182 10.9662 18.4431 10.9201 18.7471 10.8244C19.0511 10.7287 19.3281 10.5853 19.5619 10.4027C19.7956 10.2201 19.9813 10.0019 20.108 9.76098C20.2348 9.52009 20.3 9.26135 20.2999 8.99998V1.99998C20.3 1.73862 20.2348 1.47988 20.108 1.23899C19.9813 0.998095 19.7956 0.779918 19.5619 0.597291C19.3281 0.414665 19.0511 0.271279 18.7471 0.17557C18.4431 0.0798607 18.1182 0.0337614 17.7916 0.0399844Z" fill="white"/>
</svg>
