<svg width="35" height="34" viewBox="0 0 35 34" fill="none" xmlns="http://www.w3.org/2000/svg">
<path d="M28.1381 33.4061C26.8929 34.2841 18.9032 28.7184 17.373 28.7062C15.8428 28.694 7.76323 34.1317 6.53258 33.234C5.30192 32.3362 8.19513 23.1154 7.73406 21.6751C7.273 20.2348 -0.462734 14.3297 0.0218377 12.8969C0.506516 11.4641 10.2843 11.331 11.5295 10.453C12.7746 9.57509 16.0734 0.487885 17.6037 0.500012C19.1338 0.512245 22.2835 9.65081 23.5141 10.5485C24.7448 11.4462 34.5192 11.7351 34.9804 13.1754C35.4415 14.6157 27.6104 20.3968 27.1257 21.8296C26.6411 23.2624 29.3833 32.5281 28.1381 33.4061Z" fill="#F8B84E"/>
</svg>
