<svg width="35" height="29" viewBox="0 0 35 29" fill="none" xmlns="http://www.w3.org/2000/svg">
<path d="M32.2778 28.5L20.0278 18.7C19.0556 19.3222 17.9375 19.8148 16.6736 20.1778C15.4097 20.5407 14.0648 20.7222 12.6389 20.7222C9.10648 20.7222 6.1169 19.7435 3.67014 17.7861C1.22338 15.8287 0 13.437 0 10.6111C0 7.78519 1.22338 5.39352 3.67014 3.43611C6.1169 1.4787 9.10648 0.5 12.6389 0.5C16.1713 0.5 19.1609 1.4787 21.6076 3.43611C24.0544 5.39352 25.2778 7.78519 25.2778 10.6111C25.2778 11.7519 25.0509 12.8278 24.5972 13.8389C24.1435 14.85 23.5278 15.7444 22.75 16.5222L35 26.3222L32.2778 28.5ZM12.6389 17.6111C15.0694 17.6111 17.1354 16.9306 18.8368 15.5694C20.5382 14.2083 21.3889 12.5556 21.3889 10.6111C21.3889 8.66667 20.5382 7.01389 18.8368 5.65278C17.1354 4.29167 15.0694 3.61111 12.6389 3.61111C10.2083 3.61111 8.14236 4.29167 6.44097 5.65278C4.73958 7.01389 3.88889 8.66667 3.88889 10.6111C3.88889 12.5556 4.73958 14.2083 6.44097 15.5694C8.14236 16.9306 10.2083 17.6111 12.6389 17.6111Z" fill="white"/>
</svg>
